<?xml version="1.0" encoding="UTF-8"?>
<svg id="Layer_1" xmlns="http://www.w3.org/2000/svg" version="1.1" viewBox="0 0 1572 482">
  <!-- Generator: Adobe Illustrator 30.2.1, SVG Export Plug-In . SVG Version: 2.1.1 Build 1)  -->
  <defs>
    <style>
      .st0 {
        fill: #004d41;
      }

      .st1 {
        fill: #d3b257;
      }
    </style>
  </defs>
  <path class="st0" d="M418.22,205.73v36.29h2.53c3.27.12,6.53-.49,9.54-1.78,2.62-1.32,4.79-3.38,6.25-5.93,1.89-3.49,3.04-7.33,3.38-11.28h2.28v44.43h-2.28c-.84-8.39-3.04-13.91-6.75-16.62-3.58-2.67-7.94-4.07-12.41-3.99h-2.53v28.83c-.19,2.85.07,5.71.76,8.48.64,1.28,1.67,2.32,2.95,2.97,1.82.94,3.86,1.38,5.91,1.27h2.95v2.38h-46v-2.38h2.95c2.14.11,4.27-.36,6.16-1.36,1.22-.69,2.15-1.81,2.62-3.14.65-2.69.88-5.46.68-8.22v-59.86c.15-2.84-.07-5.7-.68-8.48-.63-1.26-1.63-2.3-2.87-2.97-1.82-.94-3.86-1.38-5.91-1.27h-2.95v-2.37h74.19v25.35h-2.7c-.15-4.78-1.77-9.4-4.64-13.23-2.85-3.12-6.64-5.23-10.8-6.02-4.76-.86-9.6-1.2-14.43-1.02h-8.19v-.09h-.01Z"/>
  <path class="st0" d="M489.02,226.25c5.2-.03,10.32,1.38,14.77,4.07,4.58,2.74,8.21,6.83,10.38,11.7,2.39,5.18,3.6,10.83,3.55,16.53.27,7.76-2.05,15.4-6.58,21.71-5.08,6.94-13.27,10.91-21.86,10.6-8.19.42-16.07-3.19-21.1-9.67-9.97-13.44-9.9-31.83.17-45.19,4.88-6.44,12.6-10.09,20.68-9.76M489.28,230.89c-2.17-.02-4.23.9-5.65,2.54-2.02,2.92-3.1,6.37-3.12,9.92-.51,4.92-.76,11.79-.76,20.6,0,4.37.3,8.73.93,13.06.3,2.59,1.35,5.04,3.04,7.04,1.35,1.52,3.28,2.39,5.32,2.38,1.77.06,3.5-.52,4.88-1.63,1.77-1.64,2.95-3.81,3.38-6.19,1.1-8.29,1.52-16.65,1.26-25.01.22-5.09-.2-10.19-1.26-15.18-.56-2.33-1.83-4.44-3.63-6.02-1.19-1.08-2.78-1.64-4.39-1.53"/>
  <path class="st0" d="M551.06,229.89v13.83c2.72-4.8,6.29-9.05,10.55-12.55,2.55-1.9,5.6-2.99,8.78-3.14,2.18-.11,4.3.73,5.82,2.29,1.53,1.75,2.32,4.04,2.2,6.36.16,2.44-.59,4.86-2.11,6.78-1.25,1.51-3.11,2.38-5.06,2.38-2.2.02-4.33-.76-5.99-2.2-1.69-1.44-2.7-2.29-2.95-2.44-.46-.27-.99-.41-1.52-.41-1.32.03-2.58.55-3.55,1.44-1.94,1.69-3.35,3.89-4.07,6.36-1.42,4.5-2.13,9.19-2.11,13.91v13.99l.09,3.66c-.09,1.59.05,3.19.41,4.75.43,1.1,1.23,2,2.28,2.54,1.64.65,3.39.99,5.15,1.02v2.38h-32.63v-2.38c2,.05,3.93-.75,5.32-2.2,1.28-3.11,1.78-6.49,1.44-9.83v-33.66c.12-2.22-.05-4.44-.5-6.61-.35-1.06-1-2-1.86-2.71-1.33-.71-2.8-1.12-4.3-1.19v-2.38h24.65v.02h-.04Z"/>
  <path class="st0" d="M609.29,200.64v33.58c4.19-4.9,10.26-7.8,16.71-7.97,4.19,0,8.29,1.27,11.73,3.66,3.81,2.58,6.8,6.2,8.61,10.43,2.18,4.91,3.24,10.23,3.12,15.6.07,6.27-1.29,12.47-3.97,18.14-2.28,5.04-5.94,9.33-10.55,12.38-4.5,2.88-9.76,4.36-15.11,4.24-6.13.23-12.06-2.18-16.29-6.61l-10.04,6.61h-2.2v-77.51c.1-2.18-.04-4.37-.41-6.53-.35-1.11-1.07-2.06-2.03-2.71-1.47-.72-3.09-1.07-4.73-1.02v-2.38h25.15v.09h0ZM609.29,239.98v27.13c-.09,3.54.05,7.08.41,10.6.3,2.36,1.4,4.55,3.12,6.19,3.38,2.96,8.37,3.17,11.99.51,2.02-2.05,3.4-4.64,3.97-7.46,1.35-6.64,1.89-13.41,1.6-20.18,0-9.33-1.18-15.77-3.46-19.25-1.43-2.4-4.04-3.86-6.84-3.81-4.39.26-8.4,2.59-10.8,6.28"/>
  <path class="st0" d="M709.73,256.35h-33.25c0,6.91,2.25,13.64,6.41,19.16,2.54,3.42,6.54,5.43,10.8,5.43,2.53.01,5.01-.76,7.09-2.2,2.76-2.17,5.08-4.85,6.84-7.89l2.2,1.44c-2.41,5.59-6.14,10.51-10.89,14.33-4.05,2.83-8.89,4.31-13.83,4.24-8.18.42-15.97-3.55-20.42-10.43-3.89-6.24-5.83-13.51-5.57-20.86-.47-8.83,2.46-17.51,8.19-24.25,4.78-5.68,11.82-8.97,19.24-8.99,6.19,0,12.05,2.82,15.95,7.63,4.99,6.36,7.56,14.29,7.26,22.37M693.79,251.92c.2-4.83-.16-9.67-1.1-14.41-.56-2.29-1.8-4.36-3.55-5.93-1.03-.82-2.32-1.24-3.63-1.19-2.29.02-4.39,1.29-5.49,3.31-2.78,4.83-4.1,10.37-3.8,15.94v2.29h17.57Z"/>
  <path class="st0" d="M754.3,226.33l1.01,20.77h-2.19c-1.72-4.79-4.52-9.11-8.19-12.63-2.33-2.09-5.32-3.29-8.44-3.39-1.7-.03-3.33.61-4.56,1.78-2.22,1.93-2.49,5.29-.59,7.54,3.49,3.52,7.4,6.6,11.65,9.16,4.8,2.91,9.06,6.64,12.58,11.02,2.02,3,3.08,6.55,3.04,10.17-.03,3.49-.9,6.92-2.53,10-1.58,3.16-4.08,5.76-7.17,7.46-3.11,1.78-6.63,2.68-10.21,2.63-4-.26-7.94-1.18-11.65-2.71-.85-.38-1.77-.61-2.7-.68-1.44,0-2.62,1.1-3.54,3.22h-2.11l-1.01-21.88h2.2c1.45,4.95,4.22,9.4,8.02,12.89,2.59,2.54,6,4.08,9.62,4.32,1.88.07,3.72-.63,5.06-1.95,1.3-1.2,2.01-2.9,1.94-4.66.03-1.98-.66-3.91-1.94-5.43-2.63-2.61-5.55-4.92-8.7-6.87-4.7-2.98-9.01-6.54-12.83-10.6-2.78-3.3-4.3-7.48-4.3-11.79,0-4.68,1.72-9.2,4.81-12.72,3.54-3.96,8.71-6.06,14.01-5.69,3.33,0,6.6.81,9.54,2.38.86.57,1.84.92,2.87,1.02.66.04,1.31-.14,1.86-.51.9-.81,1.67-1.75,2.28-2.8h2.2v-.06h-.03Z"/>
  <path class="st0" d="M876.98,194.23v29.08h-2.7c-2.03-8.57-5.82-11.44-11.39-16.02-5.27-4.48-11.98-6.92-18.9-6.87-5.8-.03-11.46,1.75-16.2,5.09-4.83,3.28-8.59,7.91-10.8,13.31-3.01,7.43-4.51,15.39-4.39,23.4-.08,7.83,1,15.63,3.21,23.15,1.62,6.15,5.1,11.66,9.96,15.77,5.1,3.74,11.32,5.63,17.64,5.34,5.67.08,11.27-1.26,16.29-3.9,5.97-3.53,11.26-8.09,15.61-13.48v8.13c-4.64,5.05-10.24,9.14-16.46,12.04-6.34,2.59-13.15,3.86-20,3.73-9.28.18-18.47-1.91-26.75-6.1-7.63-3.89-13.92-9.97-18.06-17.47-4.17-7.4-6.35-15.75-6.33-24.25.03-9.03,2.44-17.9,7-25.69,4.51-7.88,11.07-14.39,18.99-18.82,7.77-4.42,16.55-6.73,25.49-6.7,7.19.12,14.29,1.58,20.93,4.32,2.58,1.2,5.3,2.06,8.1,2.54,1.47.03,2.88-.56,3.88-1.63,1.24-1.45,1.98-3.27,2.11-5.17h2.79l-.02.2h0Z"/>
  <path class="st0" d="M914.79,282.42c-7.93,7.21-15.02,10.77-21.35,10.77-3.45.09-6.78-1.26-9.2-3.73-2.45-2.51-3.79-5.9-3.71-9.41.09-5.31,2.42-10.33,6.41-13.83,4.22-4.07,13.5-9.49,27.85-16.27v-6.71c.18-3.21-.07-6.44-.76-9.58-.64-1.44-1.7-2.65-3.04-3.48-1.47-.98-3.21-1.49-4.98-1.44-2.63-.11-5.22.6-7.43,2.03-1.05.63-1.72,1.74-1.77,2.97.22,1.42.9,2.73,1.94,3.73,1.56,1.6,2.49,3.7,2.62,5.93.03,2.27-.89,4.45-2.53,6.02-1.81,1.67-4.21,2.55-6.67,2.44-2.7.06-5.33-.91-7.34-2.71-1.87-1.59-2.94-3.91-2.95-6.36.09-3.65,1.5-7.14,3.97-9.83,2.97-3.35,6.79-5.84,11.06-7.21,4.71-1.69,9.68-2.55,14.69-2.54,5.18-.29,10.32,1.14,14.6,4.07,3.14,2.16,5.57,5.2,7,8.73.9,4.55,1.24,9.19,1.01,13.83v25.94c-.1,1.93,0,3.86.34,5.77.2.66.54,1.27,1.01,1.78.43.4,1.01.62,1.6.59,1.18,0,2.44-.85,3.71-2.63l2.11,1.7c-1.83,3.05-4.27,5.68-7.17,7.73-2.52,1.61-5.45,2.44-8.44,2.38-3.13.17-6.22-.79-8.69-2.71-2.36-1.99-3.77-4.88-3.88-7.97M914.79,277.15v-22.37c-4.85,2.74-9.1,6.44-12.49,10.85-1.68,2.26-2.63,4.98-2.7,7.8-.03,2.15.79,4.22,2.28,5.77,1.27,1.33,3.05,2.04,4.88,1.95,3.07-.3,5.92-1.72,8.02-3.99"/>
  <path class="st0" d="M970.49,284.62v24.25c-.13,2.32.13,4.64.76,6.87.46,1.15,1.33,2.09,2.44,2.63,2.09.73,4.3,1.02,6.51.85v2.54h-37.05v-2.54c2.38.09,4.7-.79,6.41-2.44,1.22-2.59,1.69-5.47,1.35-8.31v-68.87c.36-3.03-.2-6.1-1.6-8.82-1.68-1.52-3.9-2.32-6.16-2.2v-2.55h27.35v8.57c1.81-2.85,4.16-5.33,6.91-7.29,3.28-2.17,7.13-3.32,11.06-3.31,4.72,0,9.3,1.57,13.01,4.47,4.08,3.28,7.18,7.62,8.95,12.55,2.06,5.5,3.09,11.34,3.04,17.21.09,6.19-.97,12.34-3.12,18.14-1.74,4.99-4.94,9.33-9.2,12.47-3.86,2.84-8.54,4.36-13.34,4.32-3.46.04-6.89-.78-9.96-2.38-2.81-1.59-5.3-3.69-7.34-6.19M970.5,277.56c3.97,5.69,8.27,8.48,12.75,8.48,2.63-.08,5.01-1.62,6.16-3.99,2.44-3.9,3.63-11.36,3.63-22.3s-1.35-18.99-3.97-23.06c-1.45-2.55-4.15-4.14-7.09-4.16-4.64,0-8.54,3.39-11.56,10.17v34.85h.08,0Z"/>
  <path class="st0" d="M1046.7,225.78v14.76c2.9-5.13,6.74-9.68,11.31-13.4,2.71-2.03,5.97-3.19,9.35-3.31,2.32-.12,4.59.74,6.25,2.38,1.64,1.87,2.48,4.3,2.36,6.78.16,2.63-.65,5.22-2.28,7.29-1.35,1.63-3.37,2.56-5.49,2.54-2.36.04-4.65-.81-6.41-2.38-.99-.97-2.07-1.85-3.21-2.63-.49-.27-1.04-.41-1.6-.41-1.41.02-2.76.57-3.8,1.53-2.02,1.83-3.51,4.18-4.3,6.78-1.54,4.82-2.28,9.86-2.2,14.92v16.87l.09,3.9c-.11,1.71.06,3.43.51,5.09.48,1.18,1.34,2.16,2.44,2.8,1.74.72,3.6,1.09,5.49,1.1v2.54h-35.01v-2.54c2.16.04,4.24-.82,5.74-2.38,1.37-3.32,1.9-6.94,1.52-10.51v-37.9c.15-2.39-.05-4.79-.59-7.12-.36-1.15-1.07-2.16-2.03-2.88-1.43-.76-3.02-1.2-4.64-1.27v-2.54h26.5Z"/>
  <path class="st0" d="M1132.12,256.3h-35.62c-.01,7.4,2.39,14.6,6.84,20.52,2.72,3.65,7.01,5.79,11.56,5.77,2.72.03,5.38-.8,7.6-2.38,2.96-2.28,5.43-5.13,7.26-8.39l2.36,1.53c-2.6,5.97-6.59,11.24-11.65,15.34-4.33,3.01-9.5,4.58-14.77,4.49-8.76.44-17.09-3.83-21.86-11.19-4.16-6.68-6.24-14.44-5.99-22.3-.47-9.45,2.66-18.72,8.78-25.94,5.11-6.1,12.64-9.64,20.6-9.67,6.64.02,12.92,3,17.13,8.13,5.35,6.86,8.1,15.39,7.76,24.08M1115.07,251.62c.19-5.17-.2-10.35-1.18-15.43-.63-2.44-1.95-4.65-3.8-6.36-1.1-.88-2.48-1.33-3.88-1.27-2.47.02-4.74,1.39-5.91,3.56-2.99,5.16-4.43,11.08-4.14,17.04v2.44l18.91.02h0Z"/>
  <path class="st0" d="M1163.68,199.58v23.82h15.45v6.87h-15.45v43.92c-.11,2.44.06,4.89.5,7.29.3,1.06.96,1.99,1.86,2.63.68.6,1.54.96,2.44,1.02,3.04,0,5.82-2.29,8.54-6.87l2.11,1.53c-3.71,8.9-9.87,13.4-18.23,13.4-3.79.1-7.49-1.13-10.46-3.48-2.6-1.93-4.52-4.64-5.49-7.73-.66-4.23-.89-8.52-.68-12.8v-38.92h-8.45v-2.44c5.44-3.8,10.44-8.18,14.94-13.06,4.17-4.64,7.76-9.77,10.72-15.26h2.2v.08h0Z"/>
  <path class="st0" d="M1209.51,199.58v23.82h15.45v6.87h-15.45v43.92c-.11,2.44.06,4.89.51,7.29.3,1.06.96,1.99,1.85,2.63.68.6,1.54.96,2.44,1.02,3.04,0,5.82-2.29,8.54-6.87l2.11,1.53c-3.71,8.9-9.87,13.4-18.23,13.4-3.79.1-7.49-1.13-10.46-3.48-2.6-1.93-4.52-4.64-5.49-7.73-.66-4.23-.89-8.52-.68-12.8v-38.92h-8.45v-2.44c5.44-3.8,10.44-8.18,14.94-13.06,4.17-4.64,7.76-9.77,10.72-15.26h2.2v.08h0Z"/>
  <path class="st0" d="M1258.55,224.08c5.57-.03,11.04,1.49,15.78,4.41,4.85,2.95,8.7,7.3,11.05,12.47,2.57,5.55,3.86,11.6,3.8,17.72.27,8.3-2.19,16.46-7,23.23-5.42,7.43-14.19,11.66-23.38,11.28-8.76.47-17.18-3.4-22.54-10.34-5.29-6.83-8.09-15.27-7.93-23.91-.16-8.82,2.69-17.43,8.1-24.4,5.21-6.89,13.48-10.79,22.11-10.43M1258.8,229.02c-2.32,0-4.53.98-6.08,2.71-2.14,3.12-3.29,6.81-3.29,10.6-.5,5.26-.76,12.63-.76,22.04-.02,4.68.31,9.36,1.01,13.99.27,2.8,1.42,5.44,3.29,7.54,2.86,3.08,7.62,3.41,10.89.76,1.88-1.76,3.16-4.08,3.63-6.61,1.19-8.88,1.64-17.84,1.35-26.79.25-5.46-.21-10.93-1.35-16.27-.59-2.5-1.95-4.75-3.88-6.44-1.38-1.05-3.08-1.59-4.81-1.53"/>
  <path class="st1" d="M1010.92,336.17v11.36c-.07,1.17.02,2.33.25,3.48.22.51.61.93,1.1,1.19.7.37,1.49.54,2.28.51h1.1v1.02h-17.98v-1.02h1.18c.83.06,1.66-.15,2.36-.59.46-.31.82-.75,1.01-1.27.24-1.11.32-2.26.25-3.39v-24.08c.07-1.17-.02-2.33-.25-3.48-.22-.51-.61-.93-1.1-1.19-.7-.36-1.49-.54-2.28-.51h-1.18v-1.02h17.98v1.02h-1.1c-.83-.06-1.66.15-2.36.59-.46.31-.82.75-1.01,1.27-.24,1.11-.32,2.26-.25,3.39v10.35h12.15v-10.35c.07-1.17-.02-2.33-.25-3.48-.23-.53-.65-.95-1.18-1.19-.7-.37-1.49-.54-2.28-.51h-1.1v-1.02h17.89v1.02h-1.1c-.85-.04-1.7.16-2.44.59-.46.31-.82.75-1.01,1.27-.24,1.11-.32,2.26-.25,3.39v24.08c-.07,1.17.02,2.33.25,3.48.22.51.61.93,1.1,1.19.7.37,1.49.54,2.28.51h1.1v1.02h-17.89v-1.02h1.1c.83.06,1.66-.15,2.36-.59.46-.31.82-.75,1.01-1.27.24-1.11.32-2.26.25-3.39v-11.36h-11.99Z"/>
  <path class="st1" d="M1080.05,317.18c4.95-.38,9.82,1.42,13.34,4.92,3.43,3.46,5.29,8.18,5.15,13.06.08,4.24-1.26,8.39-3.8,11.79-3.33,4.49-8.68,7.04-14.26,6.78-5.54.3-10.89-2.1-14.35-6.44-2.69-3.46-4.09-7.74-3.97-12.12-.13-4.89,1.77-9.61,5.23-13.06,3.28-3.44,7.91-5.25,12.66-4.93M1080.38,318.88c-3.17.02-6.01,1.97-7.17,4.92-1.53,3.67-2.23,7.64-2.03,11.62-.36,4.65.73,9.3,3.12,13.31,1.34,1.98,3.6,3.13,5.99,3.05,1.56.06,3.1-.39,4.39-1.27,1.68-1.38,2.89-3.25,3.46-5.34.93-3.08,1.36-6.28,1.26-9.5.15-3.52-.27-7.04-1.26-10.43-.58-1.91-1.7-3.61-3.21-4.92-1.33-.94-2.93-1.44-4.56-1.44"/>
  <path class="st1" d="M1148.07,341.34l9.29-24.08h13.93v1.02h-1.1c-.85-.06-1.71.15-2.44.59-.46.31-.82.75-1.01,1.27-.24,1.11-.32,2.26-.25,3.39v24.08c-.07,1.17.02,2.33.25,3.48.22.51.61.93,1.1,1.19.7.37,1.49.54,2.28.51h1.1v1.02h-17.89v-1.02h1.1c.85.06,1.71-.15,2.44-.59.46-.31.82-.75,1.01-1.27.24-1.11.32-2.26.25-3.39v-27.13l-13.16,33.32h-.59l-13.25-33.07v25.78c-.04,1.1,0,2.21.09,3.31.21.88.72,1.66,1.44,2.2,1.03.66,2.25.96,3.46.85v1.02h-11.73v-1.02h.34c.73.04,1.45-.1,2.11-.41.6-.22,1.12-.6,1.52-1.1.38-.59.64-1.25.76-1.95,0-.17.09-1.1.09-2.71v-23.15c.06-1.17-.02-2.33-.25-3.48-.25-.49-.63-.9-1.1-1.19-.7-.37-1.49-.54-2.28-.51h-1.1v-1.04h14.01l9.61,24.08h-.03Z"/>
  <path class="st1" d="M1210.52,319.21v15.01h.68c1.82.16,3.59-.61,4.73-2.03,1.15-1.83,1.79-3.94,1.85-6.1h.93v18.06h-.93c-.1-1.68-.53-3.32-1.26-4.83-.48-1.06-1.28-1.95-2.28-2.54-1.17-.5-2.44-.73-3.71-.68v10.85c-.07,1.17.02,2.33.25,3.48.16.45.5.81.93,1.02.66.31,1.38.45,2.11.41h2.03c2.73.12,5.43-.65,7.68-2.2,2.1-1.77,3.56-4.18,4.14-6.87h.93l-1.52,11.02h-29.62v-.93h1.18c.82.04,1.63-.13,2.36-.51.44-.29.79-.7,1.01-1.19.24-1.06.32-2.14.25-3.22v-24.76c.03-.96-.03-1.93-.17-2.88-.15-.54-.48-1.02-.93-1.36-.77-.51-1.69-.75-2.62-.68h-1.18v-.92h28.7v10.17h-.93c-.27-1.91-.97-3.73-2.03-5.34-1-1.16-2.32-1.99-3.8-2.38-1.74-.38-3.53-.52-5.32-.41h-3.46v-.18h0Z"/>
  <path class="st1" d="M1276.52,317.18l.25,11.62h-1.01c-.38-2.69-1.66-5.17-3.63-7.04-1.66-1.66-3.9-2.6-6.25-2.63-1.49-.08-2.96.44-4.07,1.44-.95.8-1.5,1.98-1.52,3.22-.01.71.16,1.41.5,2.03.61.95,1.41,1.76,2.36,2.38,1.75,1.15,3.59,2.17,5.49,3.05,3.07,1.31,5.83,3.25,8.1,5.69,3.25,4.17,2.69,10.15-1.26,13.65-2.31,2.15-5.39,3.27-8.54,3.14-1.02.02-2.04-.09-3.04-.34-1.23-.35-2.45-.78-3.63-1.27-.64-.3-1.33-.47-2.03-.51-.52.03-1.02.2-1.44.51-.57.39-.99.96-1.18,1.63h-.72v-13.23h.93c.5,3.21,2,6.18,4.3,8.48,1.81,1.84,4.26,2.9,6.84,2.97,1.67.08,3.31-.51,4.56-1.63,1.06-.92,1.67-2.26,1.69-3.66-.01-.84-.25-1.66-.68-2.38-.5-.85-1.16-1.6-1.94-2.2-1.46-1.04-3.01-1.95-4.64-2.71-2.38-1.09-4.65-2.42-6.75-3.99-1.31-.99-2.38-2.27-3.12-3.73-.74-1.37-1.12-2.91-1.1-4.47-.04-2.7,1.06-5.29,3.04-7.12,2.03-1.97,4.77-3.04,7.6-2.97,1.08,0,2.16.14,3.21.41,1,.27,1.97.67,2.87,1.19.73.43,1.53.72,2.36.85.38,0,.74-.14,1.01-.41.39-.58.62-1.25.68-1.95l.76-.02h0Z"/>
  <path class="st1" d="M299.79,162.49l-47.18,47.4,15.53,15.52,47.18-47.31-15.53-15.6h0Z"/>
  <path class="st1" d="M251.78,210.73l63.45,63.76-15.45,15.52-63.45-63.76,15.45-15.52Z"/>
  <path class="st1" d="M269.01,226.38l15-15.09,47.06,47.34-15,15.09-47.06-47.34Z"/>
  <path class="st1" d="M284.85,210.39l31.32-31.45,15.02,15.09-31.32,31.46-15.02-15.1h0Z"/>
  <path class="st1" d="M316.63,210.49l15.46-15.56,31.21,31.39-15.47,15.56-31.2-31.39h0Z"/>
  <path class="st1" d="M300.79,226.33l14.93-15.02,31.19,31.39-14.92,15.02-31.2-31.39h0Z"/>
</svg>