<?xml version="1.0" encoding="UTF-8"?>
<svg id="Layer_1" xmlns="http://www.w3.org/2000/svg" version="1.1" viewBox="0 0 258.88 47.04">
  <!-- Generator: Adobe Illustrator 29.8.6, SVG Export Plug-In . SVG Version: 2.1.1 Build 1)  -->
  <defs>
    <style>
      .st0 {
        fill: #fff;
      }

      .st1 {
        fill: #d3b257;
      }
    </style>
  </defs>
  <path class="st0" d="M44.72,10.63v8.92h.62c.8.03,1.61-.12,2.35-.44.64-.32,1.18-.83,1.54-1.46.46-.86.75-1.8.83-2.77h.56v10.92h-.56c-.21-2.06-.75-3.42-1.66-4.09-.88-.66-1.95-1-3.05-.98h-.62v7.09c-.05.7.02,1.4.19,2.08.16.32.41.57.73.73.45.23.95.34,1.45.31h.73v.58h-11.31v-.58h.73c.53.03,1.05-.09,1.51-.33.3-.17.53-.44.64-.77.16-.66.22-1.34.17-2.02v-14.72c.04-.7-.02-1.4-.17-2.09-.16-.31-.4-.56-.71-.73-.45-.23-.95-.34-1.45-.31h-.72v-.58h18.24v6.23h-.66c-.04-1.18-.43-2.31-1.14-3.25-.7-.77-1.63-1.29-2.66-1.48-1.17-.21-2.36-.29-3.55-.25h-2.01v-.02Z"/>
  <path class="st0" d="M62.13,15.68c1.28,0,2.54.34,3.63,1,1.13.67,2.02,1.68,2.55,2.88.59,1.27.89,2.66.87,4.07.07,1.91-.5,3.79-1.62,5.34-1.25,1.71-3.26,2.68-5.38,2.61-2.01.1-3.95-.78-5.19-2.38-2.45-3.3-2.43-7.83.04-11.11,1.2-1.58,3.1-2.48,5.08-2.4M62.2,16.82c-.53,0-1.04.22-1.39.62-.5.72-.76,1.57-.77,2.44-.12,1.21-.19,2.9-.19,5.07,0,1.07.07,2.15.23,3.21.07.64.33,1.24.75,1.73.33.37.81.59,1.31.58.43.01.86-.13,1.2-.4.44-.4.73-.94.83-1.52.27-2.04.37-4.09.31-6.15.05-1.25-.05-2.51-.31-3.73-.14-.57-.45-1.09-.89-1.48-.29-.27-.68-.4-1.08-.38"/>
  <path class="st0" d="M77.39,16.57v3.4c.67-1.18,1.55-2.23,2.59-3.08.63-.47,1.38-.74,2.16-.77.54-.03,1.06.18,1.43.56.38.43.57.99.54,1.56.04.6-.15,1.2-.52,1.67-.31.37-.76.59-1.25.58-.54,0-1.06-.19-1.47-.54-.42-.35-.66-.56-.73-.6-.11-.07-.24-.1-.37-.1-.32,0-.63.13-.87.35-.48.41-.82.96-1,1.56-.35,1.11-.52,2.26-.52,3.42v3.44l.02.9c-.02.39.01.78.1,1.17.11.27.3.49.56.62.4.16.83.24,1.27.25v.58h-8.02v-.58c.49.01.97-.19,1.31-.54.32-.76.44-1.6.35-2.42v-8.28c.03-.55-.01-1.09-.12-1.63-.09-.26-.25-.49-.46-.67-.33-.17-.69-.27-1.06-.29v-.58h6.06,0Z"/>
  <path class="st0" d="M91.71,9.38v8.26c1.03-1.21,2.52-1.92,4.11-1.96,1.03,0,2.04.31,2.89.9.94.63,1.67,1.52,2.12,2.56.53,1.21.8,2.52.77,3.84.02,1.54-.32,3.07-.97,4.46-.56,1.24-1.46,2.29-2.59,3.04-1.11.71-2.4,1.07-3.71,1.04-1.51.06-2.96-.54-4-1.63l-2.47,1.63h-.54V12.47c.02-.54-.01-1.08-.1-1.61-.09-.27-.26-.51-.5-.67-.36-.18-.76-.26-1.16-.25v-.58h6.18v.02ZM91.71,19.06v6.67c-.02.87.01,1.74.1,2.61.07.58.34,1.12.77,1.52.83.73,2.06.78,2.95.12.5-.5.84-1.14.97-1.83.33-1.63.47-3.3.39-4.96,0-2.29-.29-3.88-.85-4.73-.35-.59-.99-.95-1.68-.94-1.08.07-2.06.64-2.66,1.54"/>
  <path class="st0" d="M116.4,23.08h-8.18c0,1.7.55,3.35,1.58,4.71.62.84,1.61,1.34,2.66,1.33.62,0,1.23-.19,1.74-.54.68-.53,1.25-1.19,1.68-1.94l.54.35c-.59,1.37-1.51,2.58-2.68,3.52-1,.7-2.19,1.06-3.4,1.04-2.01.1-3.93-.87-5.02-2.56-.96-1.54-1.43-3.32-1.37-5.13-.12-2.17.6-4.31,2.01-5.96,1.17-1.4,2.91-2.21,4.73-2.21,1.52,0,2.96.69,3.92,1.88,1.23,1.56,1.86,3.51,1.79,5.5M112.48,21.99c.05-1.19-.04-2.38-.27-3.54-.14-.56-.44-1.07-.87-1.46-.25-.2-.57-.3-.89-.29-.56,0-1.08.32-1.35.81-.68,1.19-1.01,2.55-.93,3.92v.56h4.32Z"/>
  <path class="st0" d="M127.36,15.7l.25,5.11h-.54c-.42-1.18-1.11-2.24-2.01-3.11-.57-.51-1.31-.81-2.07-.83-.42,0-.82.15-1.12.44-.55.47-.61,1.3-.14,1.85.86.87,1.82,1.62,2.86,2.25,1.18.72,2.23,1.63,3.09,2.71.5.74.76,1.61.75,2.5,0,.86-.22,1.7-.62,2.46-.39.78-1,1.42-1.76,1.83-.76.44-1.63.66-2.51.65-.98-.06-1.95-.29-2.86-.67-.21-.09-.43-.15-.66-.17-.35,0-.64.27-.87.79h-.52l-.25-5.38h.54c.36,1.22,1.04,2.31,1.97,3.17.64.63,1.48,1,2.37,1.06.46.02.91-.16,1.25-.48.32-.29.49-.71.48-1.15,0-.49-.16-.96-.48-1.33-.65-.64-1.36-1.21-2.14-1.69-1.16-.73-2.22-1.61-3.15-2.61-.68-.81-1.06-1.84-1.06-2.9,0-1.15.42-2.26,1.18-3.13.87-.97,2.14-1.49,3.44-1.4.82,0,1.62.2,2.35.58.21.14.45.23.71.25.16,0,.32-.03.46-.12.22-.2.41-.43.56-.69h.54,0Z"/>
  <path class="st0" d="M157.52,7.8v7.15h-.66c-.5-2.11-1.43-2.81-2.8-3.94-1.3-1.1-2.95-1.7-4.65-1.69-1.43,0-2.82.43-3.98,1.25-1.19.81-2.11,1.94-2.66,3.27-.74,1.83-1.11,3.78-1.08,5.75-.02,1.93.25,3.84.79,5.69.4,1.51,1.25,2.87,2.45,3.88,1.25.92,2.78,1.38,4.34,1.31,1.39.02,2.77-.31,4.01-.96,1.47-.87,2.77-1.99,3.84-3.32v2c-1.14,1.24-2.52,2.25-4.05,2.96-1.56.64-3.23.95-4.92.92-2.28.04-4.54-.47-6.58-1.5-1.88-.96-3.42-2.45-4.44-4.3-1.03-1.82-1.56-3.87-1.56-5.96,0-2.22.6-4.4,1.72-6.32,1.11-1.94,2.72-3.54,4.67-4.63,1.91-1.09,4.07-1.65,6.27-1.65,1.77.03,3.51.39,5.15,1.06.63.3,1.3.51,1.99.62.36,0,.71-.14.96-.4.3-.36.49-.8.52-1.27h.68v.05Z"/>
  <path class="st0" d="M166.82,29.49c-1.95,1.77-3.69,2.65-5.25,2.65-.85.02-1.67-.31-2.26-.92-.6-.62-.93-1.45-.91-2.31.02-1.31.59-2.54,1.58-3.4,1.04-1,3.32-2.33,6.85-4v-1.65c.05-.79-.02-1.58-.19-2.36-.16-.35-.42-.65-.75-.85-.36-.24-.79-.37-1.22-.35-.65-.03-1.28.15-1.83.5-.26.16-.42.43-.44.73.05.35.22.67.48.92.38.39.61.91.64,1.46,0,.56-.22,1.1-.62,1.48-.44.41-1.03.63-1.64.6-.66.02-1.31-.22-1.8-.67-.46-.39-.72-.96-.73-1.56.02-.9.37-1.76.98-2.42.73-.82,1.67-1.44,2.72-1.77,1.16-.42,2.38-.63,3.61-.62,1.27-.07,2.54.28,3.59,1,.77.53,1.37,1.28,1.72,2.15.22,1.12.3,2.26.25,3.4v6.38c-.02.47,0,.95.08,1.42.05.16.13.31.25.44.11.1.25.15.39.15.29,0,.6-.21.91-.65l.52.42c-.45.75-1.05,1.4-1.76,1.9-.62.4-1.34.6-2.07.58-.77.04-1.53-.19-2.14-.67-.58-.49-.93-1.2-.96-1.96M166.82,28.19v-5.5c-1.19.67-2.24,1.58-3.07,2.67-.41.56-.65,1.23-.66,1.92,0,.53.19,1.04.56,1.42.31.33.75.5,1.2.48.75-.07,1.46-.42,1.97-.98"/>
  <path class="st0" d="M180.52,30.03v5.96c-.03.57.03,1.14.19,1.69.11.28.33.51.6.65.51.18,1.06.25,1.6.21v.62h-9.11v-.62c.59.02,1.16-.19,1.58-.6.3-.64.42-1.34.33-2.04v-16.93c.09-.75-.05-1.5-.39-2.17-.41-.37-.96-.57-1.51-.54v-.63h6.72v2.11c.44-.7,1.02-1.31,1.7-1.79.81-.53,1.75-.82,2.72-.81,1.16,0,2.29.38,3.2,1.1,1,.81,1.77,1.87,2.2,3.08.51,1.35.76,2.79.75,4.23.02,1.52-.24,3.03-.77,4.46-.43,1.23-1.22,2.3-2.26,3.07-.95.7-2.1,1.07-3.28,1.06-.85,0-1.69-.19-2.45-.58-.69-.39-1.3-.91-1.8-1.52M180.52,28.29c.98,1.4,2.03,2.08,3.13,2.08.65-.02,1.23-.4,1.51-.98.6-.96.89-2.79.89-5.48s-.33-4.67-.98-5.67c-.36-.63-1.02-1.02-1.74-1.02-1.14,0-2.1.83-2.84,2.5v8.57h.02Z"/>
  <path class="st0" d="M199.26,15.56v3.63c.71-1.26,1.66-2.38,2.78-3.29.67-.5,1.47-.78,2.3-.81.57-.03,1.13.18,1.54.58.4.46.61,1.06.58,1.67.04.65-.16,1.28-.56,1.79-.33.4-.83.63-1.35.62-.58.01-1.14-.2-1.58-.58-.24-.24-.51-.45-.79-.65-.12-.07-.26-.1-.39-.1-.35,0-.68.14-.93.38-.5.45-.86,1.03-1.06,1.67-.38,1.19-.56,2.42-.54,3.67v4.15l.02.96c-.03.42.02.84.12,1.25.12.29.33.53.6.69.43.18.89.27,1.35.27v.62h-8.61v-.62c.53.01,1.04-.2,1.41-.58.34-.82.47-1.71.37-2.58v-9.32c.04-.59-.01-1.18-.15-1.75-.09-.28-.26-.53-.5-.71-.35-.19-.74-.29-1.14-.31v-.62h6.52Z"/>
  <path class="st0" d="M220.26,23.07h-8.76c0,1.82.59,3.59,1.68,5.05.67.9,1.72,1.42,2.84,1.42.67,0,1.32-.2,1.87-.58.73-.56,1.34-1.26,1.79-2.06l.58.38c-.64,1.47-1.62,2.76-2.86,3.77-1.07.74-2.34,1.13-3.63,1.11-2.15.11-4.2-.94-5.38-2.75-1.02-1.64-1.54-3.55-1.47-5.48-.12-2.32.65-4.6,2.16-6.38,1.26-1.5,3.11-2.37,5.06-2.38,1.63,0,3.18.74,4.21,2,1.31,1.69,1.99,3.78,1.91,5.92M216.06,21.92c.05-1.27-.05-2.54-.29-3.79-.15-.6-.48-1.14-.93-1.56-.27-.22-.61-.33-.96-.31-.61,0-1.16.34-1.45.88-.74,1.27-1.09,2.72-1.02,4.19v.6h4.65Z"/>
  <path class="st0" d="M228.02,9.12v5.86h3.8v1.69h-3.8v10.8c-.03.6.02,1.2.12,1.79.07.26.24.49.46.65.17.15.38.24.6.25.75,0,1.43-.56,2.1-1.69l.52.38c-.91,2.19-2.43,3.29-4.48,3.29-.93.02-1.84-.28-2.57-.85-.64-.47-1.11-1.14-1.35-1.9-.16-1.04-.22-2.1-.17-3.15v-9.57h-2.08v-.6c1.34-.93,2.57-2.01,3.67-3.21,1.02-1.14,1.91-2.4,2.63-3.75h.54v.02Z"/>
  <path class="st0" d="M239.29,9.12v5.86h3.8v1.69h-3.8v10.8c-.03.6.02,1.2.12,1.79.07.26.24.49.46.65.17.15.38.24.6.25.75,0,1.43-.56,2.1-1.69l.52.38c-.91,2.19-2.43,3.29-4.48,3.29-.93.02-1.84-.28-2.57-.85-.64-.47-1.11-1.14-1.35-1.9-.16-1.04-.22-2.1-.17-3.15v-9.57h-2.08v-.6c1.34-.93,2.57-2.01,3.67-3.21,1.02-1.14,1.91-2.4,2.63-3.75h.54v.02Z"/>
  <path class="st0" d="M251.34,15.14c1.37,0,2.71.37,3.88,1.08,1.19.73,2.14,1.79,2.72,3.07.63,1.36.95,2.85.93,4.36.07,2.04-.54,4.05-1.72,5.71-1.33,1.83-3.49,2.87-5.75,2.77-2.15.11-4.22-.84-5.54-2.54-1.3-1.68-1.99-3.75-1.95-5.88-.04-2.17.66-4.29,1.99-6,1.28-1.69,3.31-2.65,5.44-2.56M251.41,16.36c-.57,0-1.11.24-1.49.67-.53.77-.81,1.68-.81,2.61-.12,1.29-.19,3.11-.19,5.42,0,1.15.08,2.3.25,3.44.07.69.35,1.34.81,1.85.7.76,1.87.84,2.68.19.46-.43.78-1,.89-1.63.29-2.18.4-4.39.33-6.59.06-1.34-.05-2.69-.33-4-.15-.61-.48-1.17-.96-1.58-.34-.26-.76-.39-1.18-.38"/>
  <path class="st1" d="M190.46,42.71v2.79c-.02.29,0,.57.06.85.05.13.15.23.27.29.17.09.37.13.56.12h.27v.25h-4.42v-.25h.29c.2.01.41-.04.58-.15.11-.08.2-.18.25-.31.06-.27.08-.55.06-.83v-5.92c.02-.29,0-.57-.06-.85-.05-.13-.15-.23-.27-.29-.17-.09-.37-.13-.56-.12h-.29v-.25h4.42v.25h-.27c-.2-.01-.41.04-.58.15-.11.08-.2.18-.25.31-.06.27-.08.55-.06.83v2.54h2.99v-2.54c.02-.29,0-.57-.06-.85-.06-.13-.16-.24-.29-.29-.17-.09-.37-.13-.56-.12h-.27v-.25h4.4v.25h-.27c-.21-.01-.42.04-.6.15-.11.08-.2.18-.25.31-.06.27-.08.55-.06.83v5.92c-.02.29,0,.57.06.85.05.13.15.23.27.29.17.09.37.13.56.12h.27v.25h-4.4v-.25h.27c.2.01.41-.04.58-.15.11-.08.2-.18.25-.31.06-.27.08-.55.06-.83v-2.79h-2.95Z"/>
  <path class="st1" d="M207.45,38.04c1.22-.09,2.41.35,3.28,1.21.84.85,1.3,2.01,1.27,3.21.02,1.04-.31,2.06-.93,2.9-.82,1.11-2.13,1.73-3.51,1.67-1.36.07-2.68-.52-3.53-1.58-.66-.85-1.01-1.9-.98-2.98-.03-1.2.43-2.36,1.29-3.21.81-.85,1.95-1.29,3.11-1.21M207.54,38.45c-.78,0-1.48.48-1.76,1.21-.38.9-.55,1.88-.5,2.86-.09,1.14.18,2.29.77,3.27.33.49.89.77,1.47.75.38.01.76-.1,1.08-.31.41-.34.71-.8.85-1.31.23-.76.33-1.54.31-2.33.04-.87-.07-1.73-.31-2.56-.14-.47-.42-.89-.79-1.21-.33-.23-.72-.35-1.12-.35"/>
  <path class="st1" d="M224.18,43.98l2.28-5.92h3.42v.25h-.27c-.21-.01-.42.04-.6.15-.11.08-.2.18-.25.31-.06.27-.08.55-.06.83v5.92c-.02.29,0,.57.06.85.05.13.15.23.27.29.17.09.37.13.56.12h.27v.25h-4.4v-.25h.27c.21.01.42-.04.6-.15.11-.08.2-.18.25-.31.06-.27.08-.55.06-.83v-6.67l-3.24,8.19h-.15l-3.26-8.13v6.34c0,.27,0,.54.02.81.05.22.18.41.35.54.25.16.55.24.85.21v.25h-2.88v-.25h.08c.18,0,.36-.02.52-.1.15-.05.28-.15.37-.27.09-.15.16-.31.19-.48,0-.04.02-.27.02-.67v-5.69c.02-.29,0-.57-.06-.85-.06-.12-.15-.22-.27-.29-.17-.09-.37-.13-.56-.12h-.27v-.26h3.45l2.36,5.92Z"/>
  <path class="st1" d="M239.54,38.54v3.69h.17c.45.04.88-.15,1.16-.5.28-.45.44-.97.46-1.5h.23v4.44h-.23c-.02-.41-.13-.82-.31-1.19-.12-.26-.31-.48-.56-.62-.29-.12-.6-.18-.91-.17v2.67c-.02.29,0,.57.06.85.04.11.12.2.23.25.16.08.34.11.52.1h.5c.67.03,1.33-.16,1.89-.54.52-.43.88-1.03,1.02-1.69h.23l-.37,2.71h-7.28v-.23h.29c.2,0,.4-.03.58-.12.11-.07.19-.17.25-.29.06-.26.08-.53.06-.79v-6.09c0-.24,0-.47-.04-.71-.04-.13-.12-.25-.23-.33-.19-.13-.42-.18-.64-.17h-.29v-.23h7.06v2.5h-.23c-.07-.47-.24-.92-.5-1.31-.24-.28-.57-.49-.93-.58-.43-.09-.87-.13-1.31-.1h-.85v-.04Z"/>
  <path class="st1" d="M255.76,38.03l.06,2.86h-.25c-.09-.66-.41-1.27-.89-1.73-.41-.41-.96-.64-1.54-.65-.37-.02-.73.11-1,.35-.23.2-.37.49-.37.79,0,.17.04.35.12.5.15.23.35.43.58.58.43.28.88.53,1.35.75.75.32,1.43.8,1.99,1.4.8,1.03.66,2.5-.31,3.36-.57.53-1.33.81-2.1.77-.25,0-.5-.02-.75-.08-.3-.09-.6-.19-.89-.31-.16-.07-.33-.12-.5-.12-.13,0-.25.05-.35.12-.14.1-.24.24-.29.4h-.18v-3.25h.23c.12.79.49,1.52,1.06,2.08.44.45,1.05.71,1.68.73.41.02.81-.12,1.12-.4.26-.23.41-.55.41-.9,0-.21-.06-.41-.17-.58-.12-.21-.28-.39-.48-.54-.36-.26-.74-.48-1.14-.67-.59-.27-1.14-.59-1.66-.98-.32-.24-.58-.56-.77-.92-.18-.34-.28-.72-.27-1.1-.01-.66.26-1.3.75-1.75.5-.48,1.17-.75,1.87-.73.27,0,.53.03.79.1.25.07.48.16.71.29.18.11.38.18.58.21.09,0,.18-.03.25-.1.1-.14.15-.31.17-.48h.19Z"/>
  <path class="st1" d="M15.6,0L4,11.65l3.82,3.81L19.42,3.84l-3.82-3.84Z"/>
  <path class="st1" d="M3.8,11.86l15.6,15.68-3.8,3.82L0,15.68l3.8-3.81Z"/>
  <path class="st1" d="M8.04,15.71l3.69-3.71,11.57,11.64-3.69,3.71-11.57-11.64Z"/>
  <path class="st1" d="M11.93,11.78l7.7-7.73,3.69,3.71-7.7,7.74-3.69-3.71Z"/>
  <path class="st1" d="M19.75,11.8l3.8-3.82,7.67,7.72-3.8,3.83-7.67-7.72Z"/>
  <path class="st1" d="M15.85,15.7l3.67-3.69,7.67,7.72-3.67,3.69-7.67-7.72Z"/>
</svg>